Coordinates
version=1
nRows=24
nColumns=38
inDegrees=no

Units are S.I. units (second, meters, Newtons, ...)
If the header above contains a line with 'inDegrees', this indicates whether rotational values are in degrees (yes) or radians (no).

endheader
time	pelvis_tilt	pelvis_list	pelvis_rotation	pelvis_tx	pelvis_ty	pelvis_tz	hip_flexion_r	hip_adduction_r	hip_rotation_r	knee_angle_r	ankle_angle_r	subtalar_angle_r	mtp_angle_r	hip_flexion_l	hip_adduction_l	hip_rotation_l	knee_angle_l	ankle_angle_l	subtalar_angle_l	mtp_angle_l	lumbar_extension	lumbar_bending	lumbar_rotation	arm_flex_r	arm_add_r	arm_rot_r	elbow_flex_r	pro_sup_r	wrist_flex_r	wrist_dev_r	arm_flex_l	arm_add_l	arm_rot_l	elbow_flex_l	pro_sup_l	wrist_flex_l	wrist_dev_l
1.78	0.175453	1.01984	1.53194	0.801252	1.46029	0.998189	0.877251	-0.0529296	-0.0463112	0.0874068	-0.217071	0	0	0.353211	-0.0344522	-0.115909	0.17985	-0.0383433	0	0	0.563281	0.0331118	-0.0336175	-0.246663	-0.239593	0.372956	0.38615	1.29937	0	0	-0.260636	-0.110571	-0.656786	0.333435	1.16494	0	0
1.79	0.170488	1.01737	1.54026	0.80087	1.47157	0.995705	0.879152	-0.0564453	-0.0397894	0.0452174	-0.230412	0	0	0.345509	-0.0323069	-0.115183	0.184171	-0.0330912	0	0	0.564618	0.0327394	-0.038618	-0.242825	-0.239596	0.378734	0.381784	1.30415	0	0	-0.260275	-0.11198	-0.648379	0.332987	1.15947	0	0
1.8	0.166058	1.01461	1.54774	0.800618	1.48293	0.993188	0.882632	-0.0594181	-0.0327079	0.012864	-0.237871	0	0	0.339433	-0.0308325	-0.113441	0.192911	-0.0267351	0	0	0.566733	0.0327394	-0.0430563	-0.238987	-0.239232	0.384646	0.37636	1.30903	0	0	-0.259284	-0.113246	-0.641049	0.33155	1.1515	0	0
1.81	0.16264	1.01218	1.55374	0.800458	1.49441	0.990741	0.888198	-0.0613463	-0.0290935	0	-0.237865	0	0	0.3347	-0.0301341	-0.111047	0.204475	-0.0211246	0	0	0.568598	0.0337572	-0.0464774	-0.23581	-0.238866	0.388774	0.371321	1.31212	0	0	-0.25711	-0.114508	-0.63662	0.328386	1.14592	0	0
1.82	0.160003	1.00991	1.55845	0.800372	1.50606	0.988425	0.895071	-0.062423	-0.0260687	0	-0.233426	0	0	0.331577	-0.0299575	-0.108243	0.218791	-0.013106	0	0	0.570651	0.0355586	-0.0500244	-0.232169	-0.238346	0.392602	0.365099	1.31419	0	0	-0.255119	-0.115947	-0.631444	0.323786	1.13866	0	0
1.83	0.158018	1.00819	1.56165	0.800393	1.51791	0.98632	0.901321	-0.0623784	-0.0200046	0	-0.228684	0	0	0.329297	-0.0303338	-0.106512	0.236181	-0.00553896	0	0	0.572385	0.0383067	-0.0525007	-0.229108	-0.237779	0.394468	0.359035	1.31369	0	0	-0.252981	-0.11716	-0.627112	0.318428	1.13114	0	0
1.84	0.154375	0.996085	1.57141	0.800389	1.52897	0.984077	0.92039	-0.0662064	-0.0137525	0.0107803	-0.226317	0	0	0.349341	-0.028313	-0.0635881	0.233288	-0.00659718	0	0	0.587108	0.0370192	-0.0583149	-0.22679	-0.235218	0.39628	0.349134	1.31143	0	0	-0.251348	-0.119895	-0.621674	0.309312	1.12315	0	0
1.85	0.153851	0.994221	1.57106	0.800615	1.54124	0.982374	0.930508	-0.0622247	-0.0138859	0.0386035	-0.223595	0	0	0.348745	-0.0300945	-0.0621551	0.254329	-0.00320923	0	0	0.589994	0.0418058	-0.0586908	-0.225035	-0.23513	0.397999	0.342822	1.30903	0	0	-0.250199	-0.120532	-0.617622	0.303214	1.11686	0	0
1.86	0.156718	1.00715	1.55951	0.801205	1.55526	0.981572	0.924286	-0.0495872	-0.0191482	0.0727274	-0.218652	0	0	0.320071	-0.0371859	-0.111223	0.304438	0.0103324	0	0	0.576022	0.0529414	-0.0525712	-0.224111	-0.237182	0.397677	0.341312	1.30348	0	0	-0.248637	-0.119637	-0.612992	0.299535	1.10908	0	0
1.87	0.158672	1.0103	1.55618	0.801644	1.56866	0.980599	0.92598	-0.042518	-0.02072	0.10769	-0.217989	0	0	0.314644	-0.0412834	-0.112361	0.327423	0.0123113	0	0	0.574005	0.0587658	-0.0526841	-0.224732	-0.237471	0.395893	0.338725	1.29793	0	0	-0.249256	-0.120247	-0.607516	0.294608	1.10551	0	0
1.88	0.162031	1.01294	1.55275	0.802053	1.5825	0.979736	0.925037	-0.0354409	-0.0221884	0.137919	-0.222685	0	0	0.311076	-0.0457791	-0.111169	0.352789	0.011292	0	0	0.574105	0.0642084	-0.053949	-0.227475	-0.237794	0.393345	0.337125	1.2919	0	0	-0.251729	-0.120316	-0.603704	0.291119	1.10124	0	0
1.89	0.166323	1.01396	1.54905	0.802506	1.59652	0.978977	0.922656	-0.0285864	-0.0204208	0.157494	-0.237865	0	0	0.310913	-0.0506956	-0.107132	0.382207	0.00847978	0	0	0.577186	0.0693229	-0.0555138	-0.231941	-0.237949	0.390136	0.33623	1.28516	0	0	-0.255346	-0.120193	-0.600996	0.288198	1.09714	0	0
1.9	0.171023	1.0119	1.54454	0.803085	1.6105	0.978276	0.922107	-0.0221786	-0.014496	0.168631	-0.25995	0	0	0.316057	-0.0559656	-0.100532	0.416234	0.00404613	0	0	0.584284	0.0746623	-0.0565692	-0.238087	-0.238197	0.385899	0.336718	1.27733	0	0	-0.260177	-0.119952	-0.598552	0.286118	1.09413	0	0
1.91	0.176806	1.00876	1.53808	0.803707	1.62448	0.97786	0.923333	-0.0154133	-0.0104901	0.180986	-0.279148	0	0	0.324421	-0.0618286	-0.0922703	0.454729	-0.00287429	0	0	0.592824	0.0812933	-0.0566048	-0.245523	-0.239005	0.380477	0.338689	1.2682	0	0	-0.265123	-0.119321	-0.596021	0.283907	1.09219	0	0
1.92	0.184319	1.00597	1.52879	0.804331	1.63858	0.977914	0.924775	-0.00734959	-0.012055	0.198957	-0.289329	0	0	0.334596	-0.0685505	-0.0863542	0.496799	-0.0140804	0	0	0.601069	0.0901704	-0.0552525	-0.253471	-0.240295	0.375368	0.340421	1.25871	0	0	-0.268983	-0.117858	-0.59441	0.2801	1.09039	0	0
1.93	0.192162	1.00413	1.51714	0.805043	1.65273	0.978457	0.925947	0.00216196	-0.0136486	0.222826	-0.289865	0	0	0.34593	-0.0757398	-0.0823657	0.543256	-0.0293734	0	0	0.608045	0.100669	-0.0519283	-0.261143	-0.241819	0.371281	0.341605	1.24924	0	0	-0.272117	-0.115367	-0.594128	0.276086	1.08818	0	0
1.94	0.196916	1.00345	1.50554	0.805865	1.66682	0.979361	0.927207	0.0123482	-0.00817933	0.252683	-0.283159	0	0	0.357777	-0.0816598	-0.079894	0.592699	-0.0477624	0	0	0.61265	0.111052	-0.0459036	-0.267711	-0.243428	0.368277	0.342797	1.24063	0	0	-0.27517	-0.111657	-0.597196	0.273721	1.08396	0	0
1.95	0.198574	1.00316	1.4954	0.806816	1.68067	0.980454	0.929127	0.0226121	0.00252581	0.287153	-0.269841	0	0	0.371236	-0.0863144	-0.0789524	0.644015	-0.0726559	0	0	0.614824	0.120583	-0.0385427	-0.273112	-0.245519	0.366538	0.345486	1.23175	0	0	-0.278532	-0.107788	-0.600329	0.273105	1.08074	0	0
1.96	0.198718	1.00429	1.48692	0.807815	1.6943	0.98172	0.928659	0.0321995	0.0130917	0.319643	-0.254128	0	0	0.385995	-0.0900008	-0.0786164	0.696514	-0.101511	0	0	0.613568	0.128642	-0.0311594	-0.276346	-0.247466	0.367304	0.347815	1.22434	0	0	-0.281589	-0.104373	-0.602903	0.273793	1.079	0	0
1.97	0.198813	1.00692	1.47967	0.808757	1.70775	0.983088	0.924116	0.0406159	0.0193222	0.34551	-0.238617	0	0	0.401197	-0.0933449	-0.0781451	0.750851	-0.132833	0	0	0.609365	0.135316	-0.0244879	-0.277742	-0.249283	0.370967	0.349434	1.21917	0	0	-0.284321	-0.101426	-0.6048	0.275974	1.07877	0	0
1.98	0.200286	1.0107	1.47326	0.809535	1.72101	0.984467	0.914998	0.0474968	0.0195237	0.363083	-0.224204	0	0	0.417713	-0.0964322	-0.0768729	0.806669	-0.16589	0	0	0.602749	0.140668	-0.0196336	-0.278006	-0.251506	0.377052	0.351958	1.21624	0	0	-0.286714	-0.0989262	-0.605872	0.27974	1.0804	0	0
1.99	0.204807	1.01602	1.46694	0.809993	1.73407	0.98594	0.900955	0.0527807	0.0131175	0.373636	-0.20893	0	0	0.434779	-0.0997661	-0.0739196	0.86246	-0.203359	0	0	0.598251	0.145225	-0.0189144	-0.278776	-0.255113	0.388862	0.355482	1.21465	0	0	-0.290432	-0.0965519	-0.607507	0.284279	1.08467	0	0
2	0.214472	1.02212	1.45936	0.810261	1.74673	0.987347	0.883461	0.0574159	0.0031173	0.379025	-0.195071	0	0	0.452707	-0.104731	-0.0679303	0.917268	-0.23925	0	0	0.582587	0.149938	-0.0201949	-0.274529	-0.259022	0.399622	0.36067	1.21557	0	0	-0.288829	-0.0943162	-0.60907	0.290423	1.0883	0	0
2.01	0.227113	1.02684	1.45213	0.810367	1.75913	0.988678	0.865238	0.0611495	-0.0081183	0.3807	-0.182109	0	0	0.473111	-0.109758	-0.0583396	0.96847	-0.278037	0	0	0.572597	0.154157	-0.0258527	-0.27199	-0.263949	0.412254	0.367761	1.22116	0	0	-0.288828	-0.0925492	-0.610839	0.296582	1.09227	0	0
